<svg viewBox="0 0 80 80" fill="none" xmlns="http://www.w3.org/2000/svg">
  <defs>
    <linearGradient id="bg" x1="8" y1="72" x2="72" y2="8">
      <stop stop-color="#022c22"/>
      <stop offset="0.5" stop-color="#0d9488"/>
      <stop offset="1" stop-color="#5eead4"/>
    </linearGradient>
    <linearGradient id="leafL" x1="18" y1="52" x2="42" y2="12">
      <stop stop-color="#86efac"/>
      <stop offset="1" stop-color="#16a34a"/>
    </linearGradient>
    <linearGradient id="leafR" x1="38" y1="48" x2="62" y2="14">
      <stop stop-color="#bbf7d0"/>
      <stop offset="1" stop-color="#22c55e"/>
    </linearGradient>
    <linearGradient id="stem" x1="36" y1="58" x2="44" y2="28">
      <stop stop-color="#14532d"/>
      <stop offset="1" stop-color="#4ade80"/>
    </linearGradient>
  </defs>
  <rect width="80" height="80" rx="20" fill="url(#bg)"/>
  <path d="M12 56 L40 68 L68 56 L40 44 Z" fill="#022c22" fill-opacity="0.35"/>
  <path d="M38 58 L42 58 L44 32 L40 30 L36 32 Z" fill="url(#stem)"/>
  <path d="M40 30 C28 28 18 38 16 52 C22 48 32 42 40 38 Z" fill="url(#leafL)"/>
  <path d="M40 30 C52 26 64 36 66 50 C58 46 48 40 40 36 Z" fill="url(#leafR)"/>
  <path d="M40 28 C44 20 48 16 40 14 C36 18 38 24 40 28 Z" fill="#ecfdf5" fill-opacity="0.85"/>
</svg>
